<svg width="22" height="18" viewBox="0 0 22 18" fill="none" xmlns="http://www.w3.org/2000/svg">
<path d="M5.97827 8.97212L9.11132 7.21974C9.8429 6.8047 10.0974 5.89778 9.66798 5.19068C9.23857 4.48358 8.30024 4.23763 7.56861 4.65267L2.16132 7.66552L5.97827 8.97212Z" fill="#EA4335"/>
<path d="M8.33206 13.4606C8.85689 13.4606 9.38172 13.1993 9.66797 12.7228C10.0974 12.0157 9.84295 11.1088 9.11132 10.6937L3.70403 7.6809C2.97245 7.26586 2.03408 7.51181 1.60467 8.21891C1.17531 8.92601 1.42974 9.83294 2.16132 10.248L7.56866 13.2608C7.80723 13.3992 8.07758 13.4606 8.33206 13.4606Z" fill="#4285F4"/>
<path d="M13.7076 13.4606C13.962 13.4606 14.2324 13.3992 14.4709 13.2608L19.8783 10.248L16.1091 8.91063L12.9283 10.6784C12.1967 11.0934 11.9422 12.0004 12.3716 12.7075C12.6579 13.1993 13.1828 13.4606 13.7076 13.4606Z" fill="#FBBC04"/>
<path d="M19.115 10.4478C19.6398 10.4478 20.1646 10.1865 20.4509 9.70997C20.8803 9.00286 20.6259 8.09594 19.8943 7.6809L14.4869 4.66805C13.7554 4.25301 12.817 4.49897 12.3876 5.20606C11.9582 5.91316 12.2127 6.82008 12.9442 7.23512L18.3516 10.248C18.5901 10.3863 18.8605 10.4478 19.115 10.4478Z" fill="#34A853"/>
</svg>
